<svg width="247" height="247" viewBox="0 0 247 247" fill="none" xmlns="http://www.w3.org/2000/svg">
<mask id="mask0_5709_46276" style="mask-type:alpha" maskUnits="userSpaceOnUse" x="0" y="0" width="247" height="247" fill="#000000">
<circle cx="123.5" cy="123.5" r="123.5" fill="#c4c4c4"/>
</mask>
<g mask="url(#mask0_5709_46276)">
<path d="M122.599 215.801C94.0994 217.501 85.8994 195.301 99.4994 172.801C112.299 151.001 138.599 138.301 146.399 113.301C146.999 111.501 147.299 109.501 147.699 107.701C149.799 110.401 150.399 114.001 150.999 117.301C152.099 123.501 150.799 130.101 147.399 135.301C138.099 150.601 116.399 162.901 121.199 183.401C124.799 194.401 138.299 196.701 148.199 193.901C167.599 190.801 183.799 169.201 190.999 152.001C205.899 117.301 196.499 73.0009 166.299 49.0009C155.399 41.2009 160.199 45.9009 154.299 34.3009C152.699 31.3009 153.299 32.2009 156.099 33.2009C162.599 35.4009 168.599 38.5009 174.399 42.2009C253.699 94.6009 217.399 215.401 122.599 215.801Z" fill="#0779be"/>
<path d="M72.3992 140.2C71.7992 92.8 129.699 58.5 116.999 9.8C116.699 8.4 116.199 7 115.699 5.7C115.899 5 114.599 4.2 115.499 4C123.899 10.7 131.599 18.6 137.999 27.3C143.799 35.9 148.499 45.5 150.099 55.7C155.599 81 137.899 102.7 122.899 121.1C109.399 139.2 93.1992 156.3 84.9992 177.6C82.6992 183.8 82.4992 191.5 81.7992 197.5C76.2992 183.1 78.7992 167.3 84.4992 153.3C94.3992 130.5 112.199 112.2 126.399 92C135.599 80.7 139.499 64.9 134.199 51C132.099 49.3 133.699 55.9 132.799 57.1C132.199 61.2 131.199 65.2 129.499 69C120.599 89.6 103.199 105.3 90.3992 123.7C82.0992 134.7 78.0992 148.3 75.0992 161.4C74.4992 163 74.5992 160.4 74.5992 159.7C73.0992 153.4 72.6992 146.8 72.3992 140.2Z" fill="#0779be"/>
<path d="M69.0993 197.801C14.6993 160.401 17.7993 77.4007 73.2993 42.3007C82.9993 36.3007 93.5993 32.0007 104.699 29.6007C105.499 30.0007 107.099 28.5007 107.299 29.6007C107.099 31.6007 107.499 34.6007 104.999 34.8007C97.4993 36.6007 90.0993 39.4007 83.5993 43.6007C51.0993 62.8007 37.1993 105.101 46.8993 140.501C49.3993 150.601 53.9993 159.901 59.6993 168.601C61.8993 178.601 64.8993 188.301 69.0993 197.801Z" fill="#0779be"/>
<path d="M69.0996 197.801C69.7996 198.001 69.0996 198.501 69.0996 197.801V197.801Z" fill="#0779be"/>
</g>
</svg>