<svg width="140" height="47" viewBox="0 0 140 47" fill="none" xmlns="http://www.w3.org/2000/svg">
<path d="M52.5391 19.4073V34.9158H55.7585V24.7838H55.8888L59.9513 34.84H62.1436L66.2061 24.8217H66.3365V34.9158H69.5558V19.4073H65.4626L61.1394 29.8271H60.9555L56.6323 19.4073H52.5391Z" fill="#0779be"/>
<path d="M77.1787 35.1429C80.7507 35.1429 82.9736 32.7273 82.9736 29.1455C82.9736 25.541 80.7507 23.133 77.1787 23.133C73.6067 23.133 71.3838 25.541 71.3838 29.1455C71.3838 32.7273 73.6067 35.1429 77.1787 35.1429ZM77.1941 32.644C75.546 32.644 74.7029 31.1522 74.7029 29.1228C74.7029 27.0934 75.546 25.5941 77.1941 25.5941C78.8114 25.5941 79.6546 27.0934 79.6546 29.1228C79.6546 31.1522 78.8114 32.644 77.1941 32.644Z" fill="#0779be"/>
<path d="M87.8466 30.66V23.2844H84.7269V34.9158H87.9692L92.1928 27.5175V34.9158H95.3049V23.2844H92.0855L87.8466 30.66ZM91.5259 19.2256C91.5259 19.9374 91.0967 20.5811 90.0082 20.5811C88.8891 20.5811 88.4752 19.9223 88.4828 19.2256H86.2216C86.2216 21.0581 87.6856 22.2849 90.0082 22.2849C92.3308 22.2849 93.7948 21.0581 93.8025 19.2256H91.5259Z" fill="#0779be"/>
<path d="M112.657 19.4073H102.24V34.9158H105.559V22.1107H112.657V19.4073Z" fill="#0779be"/>
<path d="M115.178 34.9158L116.343 31.3794H122.008L123.173 34.9158H126.73L121.318 19.4073H117.041L111.622 34.9158H115.178ZM117.187 28.8199L119.118 22.9513H119.241L121.172 28.8199H117.187Z" fill="#0779be"/>
<path d="M133.96 35.1278C137.486 35.1278 140.008 33.212 140 30.5616C140.008 28.6306 138.766 27.2524 136.459 26.9647V26.8435C138.214 26.533 139.425 25.3063 139.417 23.5646C139.425 21.1187 137.256 19.1953 134.006 19.1953C130.786 19.1953 128.364 21.0581 128.318 23.7388H131.499C131.538 22.5575 132.634 21.7927 133.99 21.7927C135.332 21.7927 136.229 22.5954 136.221 23.7615C136.229 24.9807 135.179 25.8061 133.669 25.8061H132.204V28.2141H133.669C135.447 28.2141 136.558 29.0925 136.551 30.342C136.558 31.5763 135.485 32.4244 133.967 32.4244C132.503 32.4244 131.407 31.6672 131.346 30.5313H128.004C128.058 33.2422 130.51 35.1278 133.96 35.1278Z" fill="#0779be"/>
<path fill-rule="evenodd" clip-rule="evenodd" d="M18.3236 1.11667C18.9841 2.72254 19.2757 4.92945 19.0511 6.62299C18.8363 8.24262 18.1704 10.2094 17.131 12.2942C16.4501 13.6599 15.8018 14.7726 14.1355 17.4357C12.1257 20.6477 11.4929 21.7584 10.7441 23.389C9.44273 26.2228 8.9876 28.4226 9.16992 30.9978C9.28241 32.5864 9.64647 35.0733 9.75671 35.0059C9.77952 34.992 9.8164 34.8608 9.83858 34.7144C9.89972 34.3111 10.2389 32.9828 10.5023 32.1149C11.0824 30.2038 11.8466 28.4811 12.647 27.2802C13.2391 26.3919 13.8681 25.5792 15.9767 22.9779C17.7999 20.7288 19.4605 18.5864 20.0398 17.7363C21.4265 15.7012 22.227 13.565 22.3579 11.5495L22.3969 10.948L22.5344 11.3777C22.8128 12.2479 22.9121 13.0738 22.879 14.2419C22.8472 15.3634 22.7684 15.837 22.4643 16.7332C22.0253 18.0271 21.0965 19.4094 18.0413 23.3158C13.5834 29.0156 12.2782 31.0871 11.2883 34.0338C10.3133 36.9358 10.2286 39.49 11.0283 41.8669C11.4008 42.9739 11.4033 42.9733 11.4071 41.7786C11.411 40.5954 11.5035 39.8934 11.8087 38.7313C12.5381 35.954 14.0283 33.6965 20.4648 25.6189C22.5605 22.9887 23.2124 22.1231 23.8071 21.1804C26.4481 16.9937 26.8588 13.5145 25.2031 9.35475C24.271 7.01328 22.8335 4.98874 20.5165 2.75462C19.8406 2.10295 18.8221 1.21772 18.2554 0.789686C18.1825 0.734635 18.199 0.813631 18.3236 1.11667ZM16.0356 6.45558C13.2385 7.0488 10.3873 8.33204 8.12075 10.0179C3.9664 13.1081 1.22506 17.4978 0.295627 22.5483C0.0518779 23.8728 -0.000288293 24.4997 1.1953e-06 26.0999C0.000290684 27.6369 0.0510674 28.3 0.262973 29.5371C1.14823 34.7039 4.16349 39.4375 8.52847 42.5129L8.83752 42.7306L8.54983 42.1631C7.83879 40.7601 7.09926 38.5557 6.65489 36.5139C6.57888 36.1646 6.49249 35.973 6.24179 35.5973C4.69174 33.2747 3.69231 30.5344 3.28964 27.5034C3.16521 26.5666 3.14773 24.0238 3.25935 23.0925C3.79937 18.5865 5.65059 14.7597 8.7193 11.8055C10.8103 9.79264 13.1086 8.4941 15.8298 7.78823C16.2614 7.6763 16.6226 7.57731 16.6324 7.56831C16.6564 7.54637 16.8167 6.56359 16.817 6.4368C16.8173 6.31025 16.7085 6.31289 16.0356 6.45558ZM26.578 7.32474C26.8399 7.77861 27.23 8.59406 27.4386 9.12338L27.5999 9.53279L28.2444 9.96461C29.2117 10.6127 29.7879 11.0869 30.6889 11.9761C33.0476 14.3041 34.6597 17.1494 35.4943 20.4574C36.8137 25.687 35.8745 31.2852 32.9428 35.6666C31.6654 37.5756 29.9241 39.3195 28.1652 40.4513C26.9947 41.2044 25.4313 41.6235 23.7901 41.624C22.2263 41.6244 21.2225 41.2662 20.4641 40.4371C19.3908 39.2636 19.2973 37.601 20.2001 35.7433C20.8467 34.4129 21.7038 33.2875 23.4415 31.4873C25.0004 29.8723 25.797 28.6331 26.118 27.3237C26.1852 27.0495 26.2136 26.688 26.212 26.1286C26.2085 24.9089 25.9542 23.8596 25.4876 23.1398L25.3084 22.8633L25.2355 23.3533C25.0701 24.4646 24.4422 25.9153 23.5582 27.2286C22.571 28.6954 21.4417 29.9382 19.2489 31.9715C15.88 35.0953 14.2145 37.5247 13.7113 40.0489C13.559 40.8133 13.5733 42.1853 13.7401 42.7934C14.2943 44.8139 15.8942 45.9213 18.6699 46.2059C19.8666 46.3286 22.0762 46.2034 23.736 45.9187C31.1178 44.6528 37.2429 39.3891 39.5701 32.3114C39.984 31.0528 40.2737 29.7142 40.4498 28.2481C40.5495 27.4178 40.5481 24.78 40.4475 23.9517C39.8762 19.2485 37.8913 15.1616 34.5914 11.8941C32.9581 10.2768 31.176 9.03075 29.024 8.00122C28.1846 7.59971 26.5996 6.96671 26.4333 6.96671C26.3993 6.96671 26.4644 7.12785 26.578 7.32474Z" fill="#0779be"/>
</svg>